HIERARCHY
ROOT Hips
{
	OFFSET 0.000000 0.000000 0.000000
	CHANNELS 6 Xposition Yposition Zposition Xrotation Yrotation Zrotation
	JOINT LeftUpLeg_virtual
	{
		OFFSET 0.000000 0.000000 0.000000
		CHANNELS 3 Xrotation Yrotation Zrotation
		JOINT LeftUpLeg
		{
			OFFSET 13.026900 -6.336304 -1.092800
			CHANNELS 3 Xrotation Yrotation Zrotation
			JOINT LeftLeg
			{
				OFFSET 0.524474 -46.096886 9.782700
				CHANNELS 3 Xrotation Yrotation Zrotation
				JOINT LeftFoot
				{
					OFFSET -0.524474 -53.427422 -12.948200
					CHANNELS 3 Xrotation Yrotation Zrotation
					JOINT LeftToeBase
					{
						OFFSET 0.192200 -14.009700 16.364100
						CHANNELS 3 Xrotation Yrotation Zrotation
						JOINT LeftToe_End
						{
							OFFSET -1.784700 -0.561700 9.474800
							CHANNELS 3 Xrotation Yrotation Zrotation
							End Site
							{
								OFFSET 0 0 0
							}
						}
					}
				}
			}
		}
	}
	JOINT RightUpLeg_virtual
	{
		OFFSET 0.000000 0.000000 0.000000
		CHANNELS 3 Xrotation Yrotation Zrotation
		JOINT RightUpLeg
		{
			OFFSET -12.883000 -6.336304 -1.092800
			CHANNELS 3 Xrotation Yrotation Zrotation
			JOINT RightLeg
			{
				OFFSET -0.524587 -46.096825 9.782800
				CHANNELS 3 Xrotation Yrotation Zrotation
				JOINT RightFoot
				{
					OFFSET 0.524587 -53.427383 -12.948300
					CHANNELS 3 Xrotation Yrotation Zrotation
					JOINT RightToeBase
					{
						OFFSET -0.192200 -14.009700 16.364100
						CHANNELS 3 Xrotation Yrotation Zrotation
						JOINT RightToe_End
						{
							OFFSET 1.784700 -0.561700 9.474800
							CHANNELS 3 Xrotation Yrotation Zrotation
							End Site
							{
								OFFSET 0 0 0
							}
						}
					}
				}
			}
		}
	}
	JOINT Spine_virtual
	{
		OFFSET 0.000000 0.000000 0.000000
		CHANNELS 3 Xrotation Yrotation Zrotation
		JOINT Spine
		{
			OFFSET 0.072000 7.257294 -0.789700
			CHANNELS 3 Xrotation Yrotation Zrotation
			JOINT Spine1
			{
				OFFSET 0.000000 12.508769 -0.658067
				CHANNELS 3 Xrotation Yrotation Zrotation
				JOINT Spine1_split
				{
					OFFSET 0.000000 12.508769 -0.658067
					CHANNELS 3 Xrotation Yrotation Zrotation
					JOINT Spine2
					{
						OFFSET 0.000000 12.508769 -0.658067
						CHANNELS 3 Xrotation Yrotation Zrotation
						JOINT Neck_virtual
						{
							OFFSET 0.000000 0.000000 0.000000
							CHANNELS 3 Xrotation Yrotation Zrotation
							JOINT Neck
							{
								OFFSET 0.000000 14.033295 7.520400
								CHANNELS 3 Xrotation Yrotation Zrotation
								JOINT Head
								{
									OFFSET 0.000000 8.198502 5.703100
									CHANNELS 3 Xrotation Yrotation Zrotation
									JOINT HeadTop_End
									{
										OFFSET 0.000000 17.760803 13.332701
										CHANNELS 3 Xrotation Yrotation Zrotation
										End Site
										{
											OFFSET 0 0 0
										}
									}
								}
							}
						}
						JOINT LeftShoulder_virtual
						{
							OFFSET 0.000000 0.000000 0.000000
							CHANNELS 3 Xrotation Yrotation Zrotation
							JOINT LeftShoulder
							{
								OFFSET 6.292450 5.785301 -0.669000
								CHANNELS 3 Xrotation Yrotation Zrotation
								JOINT LeftShoulder_split
								{
									OFFSET 6.292450 5.785301 -0.669000
									CHANNELS 3 Xrotation Yrotation Zrotation
									JOINT LeftArm
									{
										OFFSET 13.907140 -6.093903 1.965100
										CHANNELS 3 Xrotation Yrotation Zrotation
										JOINT LeftForeArm
										{
											OFFSET 34.140198 0.000000 0.000000
											CHANNELS 3 Xrotation Yrotation Zrotation
											JOINT LeftHand
											{
												OFFSET 40.960209 0.000000 0.000000
												CHANNELS 3 Xrotation Yrotation Zrotation
												End Site
												{
													OFFSET 0 0 0
												}
											}
										}
									}
								}
							}
						}
						JOINT RightShoulder_virtual
						{
							OFFSET 0.000000 0.000000 0.000000
							CHANNELS 3 Xrotation Yrotation Zrotation
							JOINT RightShoulder
							{
								OFFSET -6.292450 5.785301 -0.669000
								CHANNELS 3 Xrotation Yrotation Zrotation
								JOINT RightShoulder_split
								{
									OFFSET -6.292450 5.785301 -0.669000
									CHANNELS 3 Xrotation Yrotation Zrotation
									JOINT RightArm
									{
										OFFSET -13.907140 -6.093903 1.965100
										CHANNELS 3 Xrotation Yrotation Zrotation
										JOINT RightForeArm
										{
											OFFSET -34.140198 0.000000 0.000000
											CHANNELS 3 Xrotation Yrotation Zrotation
											JOINT RightHand
											{
												OFFSET -40.960209 0.000000 0.000000
												CHANNELS 3 Xrotation Yrotation Zrotation
												End Site
												{
													OFFSET 0 0 0
												}
											}
										}
									}
								}
							}
						}
					}
				}
			}
		}
	}
}
MOTION
Frames: 6
Frame Time: 0.03333333
0.695458 98.641907 2.821743 0.000000 0.000000 0.000000 8.674500 -57.578140 9.600832 -37.377363 7.115324 23.283833 36.470509 -5.755752 -3.127182 -3.880509 -4.199678 -11.149413 0.822313 0.347777 -0.747018 0.000000 0.000000 0.000000 9.185854 -58.407762 10.195554 -36.737542 -8.507908 -24.590870 44.442572 3.801584 -4.808713 -12.239918 -0.658913 20.236198 3.385299 -0.391632 -1.470340 0.000000 0.000000 0.000000 10.730132 -54.252176 10.784627 9.179203 -1.998139 -1.098862 8.490081 0.553371 -5.872457 -0.530788 -4.338886 0.918228 0.000000 0.000000 0.000000 8.399232 0.988259 -4.750865 -15.378500 27.108003 6.243254 -3.446064 35.799477 -6.550321 0.000000 0.000000 0.000000 8.352218 1.155137 -5.546825 -5.809262 -10.258437 -1.545135 -5.731011 0.928264 -4.160811 -19.092826 -1.527313 -33.127377 3.250003 -35.165195 8.102859 0.000000 0.000000 0.000000 8.880970 1.148559 -5.387063 -2.694136 11.958919 -3.654625 1.893434 -3.932760 8.601202 -43.826588 -19.791954 33.779681 -152.812997 66.985304 150.731210 0.000000 0.000000 0.000000 
1.029364 98.554977 2.049667 0.000000 0.000000 0.000000 9.003791 -57.548995 10.103901 -37.065480 7.220976 22.806570 35.942802 -5.009401 -3.418958 -4.222122 -3.945243 -10.666105 0.910419 0.328760 -0.928171 0.000000 0.000000 0.000000 9.545918 -58.783777 10.777472 -37.048852 -8.771756 -24.910098 44.545620 3.931929 -4.764156 -11.844633 -0.619027 19.893614 2.894480 -0.518107 -1.202758 0.000000 0.000000 0.000000 10.817497 -54.019543 11.035396 9.153185 -1.789957 -1.049837 8.375276 0.537181 -5.850036 -0.452996 -4.049893 1.361597 0.000000 0.000000 0.000000 8.464139 0.918339 -4.641036 -15.284719 27.591613 6.310304 -2.866944 35.301542 -6.529396 0.000000 0.000000 0.000000 8.406880 1.114092 -5.477177 -5.798432 -10.326484 -1.872247 -6.691637 0.475051 -4.785733 -18.587146 -1.436771 -33.810621 3.202900 -36.669646 7.779802 0.000000 0.000000 0.000000 8.756039 1.043381 -5.166872 -2.081234 12.623436 -3.293781 1.398824 -4.202542 6.918232 -43.819270 -22.188681 32.981737 -150.417062 68.284482 148.402840 0.000000 0.000000 0.000000 
1.315639 98.528053 1.177036 0.000000 0.000000 0.000000 9.132579 -58.014029 10.745707 -36.397672 7.870870 22.446180 35.304080 -4.018834 -3.850696 -4.542282 -3.686343 -10.723978 0.993116 0.281706 -1.014368 0.000000 0.000000 0.000000 9.545719 -59.486119 11.413912 -37.575760 -9.162760 -25.526944 44.546784 4.592162 -4.712198 -11.397220 -0.341440 19.710867 2.564766 -0.585060 -1.079905 0.000000 0.000000 0.000000 10.323506 -54.116279 11.054083 9.397501 -1.470511 -1.017905 8.493510 0.586707 -5.750959 -0.122293 -3.368168 1.434839 0.000000 0.000000 0.000000 8.583150 0.980096 -4.548229 -16.081814 27.803477 7.350944 -1.761216 34.670303 -6.732963 0.000000 0.000000 0.000000 8.576508 1.118568 -5.340498 -5.825788 -10.697222 -2.265089 -7.312138 -0.550335 -5.262025 -18.685531 0.912002 -34.884952 3.533393 -38.743063 6.778293 0.000000 0.000000 0.000000 8.695122 1.014541 -4.893434 -1.211078 13.051382 -2.663243 0.430851 -3.475039 5.433328 -44.372812 -23.806339 30.443027 -142.932377 69.426585 141.512873 0.000000 0.000000 0.000000 
1.446063 98.630249 0.638527 0.000000 0.000000 0.000000 9.149067 -59.072694 11.549391 -35.399060 9.073842 22.199066 34.846741 -2.833751 -4.357968 -4.923057 -3.373919 -11.353271 1.300312 0.220300 -1.007068 0.000000 0.000000 0.000000 9.340997 -60.631494 12.104118 -38.257252 -9.432583 -26.337122 44.446100 5.663949 -4.627864 -10.861447 0.232525 19.747583 2.290286 -0.590158 -1.104127 0.000000 0.000000 0.000000 9.511737 -54.809461 11.011498 9.857331 -1.055949 -0.988122 8.819788 0.722653 -5.540501 0.170209 -2.634088 1.238334 0.000000 0.000000 0.000000 8.757771 1.171118 -4.421983 -17.410227 27.709739 8.907523 -0.069778 34.097732 -7.309688 0.000000 0.000000 0.000000 8.836889 1.202303 -5.097138 -5.924463 -11.386789 -2.904304 -7.800143 -1.804295 -5.397052 -18.792956 4.989444 -35.957326 4.246718 -41.040629 5.283635 0.000000 0.000000 0.000000 8.778441 1.084499 -4.585248 -0.150473 13.398574 -1.924111 -0.772293 -2.491583 4.271471 -45.150839 -24.004210 26.260310 -130.982592 69.689759 130.620032 0.000000 0.000000 0.000000 
1.415263 98.776733 0.625847 0.000000 0.000000 0.000000 9.172541 -60.990482 12.565590 -34.125336 10.660931 22.026686 34.829624 -1.444797 -4.903249 -5.562322 -2.848961 -12.365521 1.906370 0.169753 -0.938512 0.000000 0.000000 0.000000 9.003062 -62.443946 12.840765 -39.095911 -9.309933 -27.086952 44.092747 7.004748 -4.540098 -10.185179 1.062336 19.973131 1.640969 -0.536584 -1.226132 0.000000 0.000000 0.000000 8.407066 -56.345273 10.990916 10.415753 -0.573618 -0.915304 9.295484 0.948899 -5.132565 0.444434 -1.997499 1.011148 0.000000 0.000000 0.000000 9.013524 1.461219 -4.174617 -18.640081 27.433894 10.524228 2.223650 33.819163 -8.478637 0.000000 0.000000 0.000000 9.245501 1.368605 -4.655682 -6.142369 -12.413027 -3.911289 -7.996149 -2.567127 -5.506177 -18.487010 9.658537 -36.638009 5.606332 -43.587651 3.676131 0.000000 0.000000 0.000000 9.054769 1.239788 -4.189090 0.995600 13.761484 -1.363180 -1.749901 -2.058018 3.215078 -45.558834 -22.229979 20.755104 -116.411381 68.603240 117.410597 0.000000 0.000000 0.000000 
1.267721 98.928368 1.221539 0.000000 0.000000 0.000000 9.272656 -63.741757 13.747453 -32.560328 12.392348 21.880649 35.319229 0.147782 -5.485757 -6.728905 -2.050579 -13.426289 2.453773 0.158955 -0.799653 0.000000 0.000000 0.000000 8.793949 -64.884967 13.710152 -40.071887 -8.567227 -27.524361 43.532846 8.440292 -4.512668 -9.520482 2.003973 20.231010 0.535468 -0.452038 -1.322195 0.000000 0.000000 0.000000 7.079549 -58.830946 11.047892 10.913635 -0.070411 -0.735988 9.869136 1.237194 -4.476234 0.526911 -1.422241 0.948311 0.000000 0.000000 0.000000 9.339851 1.799735 -3.725185 -19.198863 27.258223 11.760671 5.036423 33.911097 -10.370566 0.000000 0.000000 0.000000 9.801180 1.603402 -3.972220 -6.512611 -13.733361 -5.320737 -7.686218 -2.885095 -5.519793 -17.276298 13.823401 -36.628983 8.106364 -46.525445 2.692515 0.000000 0.000000 0.000000 9.543635 1.435839 -3.664964 2.221651 14.339197 -1.256566 -2.718402 -2.771171 2.443655 -44.661265 -18.537900 14.491527 -100.244754 66.188249 102.789860 0.000000 0.000000 0.000000 
